<?xml version="1.0" encoding="utf-8"?>
<!-- Generator: Adobe Illustrator 24.0.2, SVG Export Plug-In . SVG Version: 6.00 Build 0)  -->
<svg version="1.1" id="Layer_1" xmlns="http://www.w3.org/2000/svg" xmlns:xlink="http://www.w3.org/1999/xlink" x="0px" y="0px"
	 viewBox="0 0 480 480" style="enable-background:new 0 0 480 480;" xml:space="preserve">
<style type="text/css">
	.st0{fill:#64DD17;}
	.st1{fill:#0C1902;}
</style>
<path class="st0" d="M8,59.6C8,31.1,31.1,8,59.6,8h360.9C448.9,8,472,31.1,472,59.6v360.9c0,28.5-23.1,51.6-51.6,51.6H59.6
	C31.1,472,8,448.9,8,420.4V59.6z"/>
<path class="st1" d="M150.5,177.8h-13.5v121.7h11.1c12.3,0,21-3.2,26-9.8s7.7-17.7,7.9-33.7v-31.8c0-17.1-2.4-29.1-7.2-35.8
	C170.2,181.7,162,178.1,150.5,177.8z"/>
<path class="st1" d="M46.7,46.7v386.7h386.7V46.7H46.7z M219.1,252.9c0,24.1-6.4,43-19.1,56.7c-12.7,13.7-30.2,20.6-52.6,20.6h-47.5
	V147h48.5c21.4,0,38.4,6.8,51.2,20.4c12.7,13.6,19.2,32.2,19.4,55.9L219.1,252.9L219.1,252.9z M361.2,330.2h-29.6l-19.3-78.8
	l-19.3,78.8h-29.7L235.2,194h34.2l12.1,76.5l18.1-76.5H325l18.1,76.4l12.2-76.4h34.1L361.2,330.2z"/>
</svg>
