<?xml version="1.0" encoding="utf-8"?>
<!-- Generator: Adobe Illustrator 24.0.2, SVG Export Plug-In . SVG Version: 6.00 Build 0)  -->
<svg version="1.1" id="Layer_1" xmlns="http://www.w3.org/2000/svg" xmlns:xlink="http://www.w3.org/1999/xlink" x="0px" y="0px"
	 viewBox="0 0 480 480" style="enable-background:new 0 0 480 480;" xml:space="preserve">
<style type="text/css">
	.st0{fill:#FFC107;}
	.st1{fill:#1C1302;}
</style>
<path class="st0" d="M9,60.3C9,32,32,9,60.3,9h359.3C448,9,471,32,471,60.3v359.3c0,28.3-23,51.3-51.3,51.3H60.3
	C32,471,9,448,9,419.7V60.3z"/>
<path class="st1" d="M47.5,47.5v385h385v-385H47.5z M214.5,178.1h-64.2v46.8h57.3v30.6h-57.3v74.4h-36.8V147.4h101V178.1z
	 M350.6,329.8h-29.5L302,251.4l-19.2,78.5h-29.6l-28.1-135.6h34.1l12,76.2l18-76.2h25.2l18,76.1l12.2-76.1h34L350.6,329.8z"/>
</svg>
