<?xml version="1.0" encoding="UTF-8"?>
<!DOCTYPE svg PUBLIC "-//W3C//DTD SVG 1.1//EN" "http://www.w3.org/Graphics/SVG/1.1/DTD/svg11.dtd">

<svg xmlns="http://www.w3.org/2000/svg" xml:space="preserve" width="28" height="20" version="1.1" style="shape-rendering:geometricPrecision; text-rendering:geometricPrecision; image-rendering:optimizeQuality; fill-rule:evenodd; clip-rule:evenodd"
viewBox="0 0 7111 7111"
 xmlns:xlink="http://www.w3.org/1999/xlink">
 <defs>
  <style type="text/css">
   <![CDATA[
    .fil0 {fill:url(#id0)}
   ]]>
  </style>
  <linearGradient id="id0" gradientUnits="userSpaceOnUse" x1="0.00393701" y1="3555.56" x2="7111.11" y2="3555.56">
   <stop offset="0" style="stop-opacity:1; stop-color:#336666"/>
   <stop offset="1" style="stop-opacity:1; stop-color:#003333"/>
  </linearGradient>
 </defs>
 <g id="Layer_x0020_1">
  <metadata id="CorelCorpID_0Corel-Layer"/>
  <path class="fil0" d="M4011 6142c-102,0 -161,-123 -90,-202l302 -332 -302 -333c-45,-49 -41,-125 9,-170 49,-45 125,-41 170,8l375 414c42,46 42,116 0,162l-375 413c-24,27 -56,40 -89,40zm1202 -1526l-3407 0 142 1983 3123 0 142 -1983zm-4489 1168c-85,-45 -142,-102 -176,-172 -85,-175 0,-368 130,-621 349,-681 923,-1884 1598,-1971 -7,-35 -13,-83 -3,-122 16,-60 402,-1481 1206,-1692 20,-5 41,-5 61,0 804,211 1190,1632 1206,1692 10,38 5,87 -3,122 676,87 1250,1290 1599,1971 129,253 215,446 130,621 -35,70 -92,127 -177,172l570 0c67,0 121,54 121,121 0,67 -54,121 -121,121l-1511 0 -41 573 225 0c67,0 121,54 121,121 0,67 -54,121 -121,121l-4057 0c-67,0 -121,-54 -121,-121 0,-67 54,-121 121,-121l225 0 -41 -573 -1511 0c-67,0 -121,-54 -121,-121 0,-67 54,-121 121,-121l570 0zm1629 -2528c-553,0 -1169,1277 -1460,1845 -88,172 -164,332 -128,405 19,40 90,97 317,141l564 109c-9,-122 -93,-1251 -90,-1271 4,-27 12,-50 32,-72 23,-24 55,-38 89,-38l3666 0c33,0 65,14 88,38 25,26 34,57 32,91l-89 1252 564 -109c226,-44 297,-101 316,-141 47,-95 -108,-366 -190,-528 -283,-559 -874,-1722 -1398,-1722 -32,0 -65,5 -97,15 -56,52 -223,207 -406,364 -408,351 -584,455 -677,437 -73,-15 -211,-77 -629,-436 -183,-158 -351,-313 -407,-366 -32,-9 -64,-14 -97,-14zm2061 -171c50,-43 170,-149 41,-182 -50,-13 -117,-28 -196,-43 -69,314 -379,552 -749,552 -371,0 -680,-237 -749,-551 -76,14 -141,29 -190,41 -112,28 -53,116 10,162 264,213 636,622 929,762 190,-91 715,-564 904,-741zm-5 -441c-149,-399 -454,-1053 -899,-1195 -446,142 -752,797 -900,1197 286,-64 598,-105 903,-105 335,0 673,54 896,103zm-389 176c-355,-49 -664,-49 -1020,1 50,200 260,350 510,350 250,0 460,-151 510,-351zm754 3581c-70,0 -125,-60 -120,-129l96 -1345c5,-67 63,-117 129,-112 67,4 117,62 112,129l-96 1345c-5,64 -58,112 -121,112zm-2529 0c-63,0 -116,-48 -120,-112l-97 -1345c-4,-67 46,-125 112,-129 67,-5 124,45 129,112l97 1345c5,69 -51,129 -121,129zm1864 -2464c145,-116 309,-259 502,-439 48,-45 125,-42 170,6 46,49 43,125 -6,171 -197,184 -365,331 -516,451 -123,98 -275,-89 -150,-189zm-1349 189c-150,-120 -319,-267 -516,-451 -49,-46 -51,-122 -6,-171 46,-48 122,-51 171,-6 192,180 356,323 502,439 124,100 -28,287 -151,189zm-652 -1494l-1987 0c-67,0 -121,-54 -121,-121l0 -1848c0,-66 54,-120 121,-120l1987 0c66,0 120,54 120,120l0 1848c0,67 -54,121 -120,121zm-1866 -241l1745 0 0 -1607 -1745 0 0 1607zm1506 -1138l-1268 0c-67,0 -121,-54 -121,-120 0,-67 54,-121 121,-121l1268 0c67,0 121,54 121,121 0,66 -54,120 -121,120zm0 455l-1268 0c-67,0 -121,-54 -121,-121 0,-66 54,-120 121,-120l1268 0c67,0 121,54 121,120 0,67 -54,121 -121,121zm0 455l-1268 0c-67,0 -121,-54 -121,-121 0,-67 54,-121 121,-121l1268 0c67,0 121,54 121,121 0,67 -54,121 -121,121zm1616 4109c-77,0 -137,-76 -116,-152l291 -1087c17,-64 83,-102 147,-85 65,17 103,83 86,148l-291 1086c-15,54 -63,90 -117,90zm3626 -3640l-1637 0c-66,0 -120,-54 -120,-121l0 -1196c0,-67 54,-121 120,-121l151 0 0 -255c0,-369 299,-669 668,-669 339,0 625,255 664,592 7,66 -40,126 -106,134 -67,7 -127,-40 -134,-106 -25,-216 -207,-378 -424,-378 -235,0 -427,191 -427,427l0 255 1245 0c67,0 121,54 121,121l0 1196c0,67 -54,121 -121,121zm-1516 -241l1396 0 0 -956 -1396 0 0 956zm698 -260c-67,0 -121,-54 -121,-120l0 -196c0,-66 54,-120 121,-120 67,0 121,54 121,120l0 196c0,66 -54,120 -121,120zm-3163 4011c-33,0 -66,-13 -90,-40l-375 -413c-42,-46 -42,-116 0,-162l375 -414c45,-49 121,-53 171,-8 49,45 53,121 8,170l-301 333 301 332c71,79 12,202 -89,202z"/>
 </g>
</svg>
